<?xml version="1.0" encoding="UTF-8" standalone="no"?>
<!-- Created with Inkscape (http://www.inkscape.org/) -->

<svg
   width="210mm"
   height="297mm"
   viewBox="0 0 210 297"
   version="1.1"
   id="svg5"
   inkscape:version="1.1.2 (b8e25be833, 2022-02-05)"
   sodipodi:docname="prace_titulka.svg"
   xmlns:inkscape="http://www.inkscape.org/namespaces/inkscape"
   xmlns:sodipodi="http://sodipodi.sourceforge.net/DTD/sodipodi-0.dtd"
   xmlns="http://www.w3.org/2000/svg"
   xmlns:svg="http://www.w3.org/2000/svg">
  <sodipodi:namedview
     id="namedview7"
     pagecolor="#ffffff"
     bordercolor="#666666"
     borderopacity="1.0"
     inkscape:pageshadow="2"
     inkscape:pageopacity="0.0"
     inkscape:pagecheckerboard="0"
     inkscape:document-units="mm"
     showgrid="false"
     inkscape:zoom="1.5554293"
     inkscape:cx="330.13394"
     inkscape:cy="572.1893"
     inkscape:window-width="3840"
     inkscape:window-height="2089"
     inkscape:window-x="-8"
     inkscape:window-y="-8"
     inkscape:window-maximized="1"
     inkscape:current-layer="g15" />
  <defs
     id="defs2" />
  <g
     inkscape:label="Layer 1"
     inkscape:groupmode="layer"
     id="layer1">
    <g
       id="g15"
       inkscape:label="prace_titulka"
       transform="matrix(0.35277777,0,0,-0.35277777,9.5299451,290.28855)">
      <g
         id="g17"
         transform="matrix(1.17,0,0,-1.17,82.5,778.14)">
        <g
           id="g19">
          <g
             id="g21">
            <path
               d="M 0,100 H 100 V 0 H 0 Z"
               style="fill:#e4002b;fill-opacity:1;fill-rule:nonzero;stroke:none"
               id="path23" />
          </g>
          <g
             id="g25">
            <path
               d="m 83.01,26.35 h -36.4 v 0 -11.18 H 15.95 V 26.35 H 46.62 V 82.67 H 58.15 V 43.74 c 0,-3.96 3.43,-7.16 7.66,-7.16 h 17.2 z"
               style="fill:#ffffff;fill-opacity:1;fill-rule:nonzero;stroke:none"
               id="path27" />
          </g>
        </g>
      </g>
      <text
         transform="matrix(1,0,0,-1,82.5,589.434)"
         style="font-variant:normal;font-weight:normal;font-size:25px;font-family:VafleVUT;-inkscape-font-specification:VafleVUT-Regular;writing-mode:lr-tb;fill:#000000;fill-opacity:1;fill-rule:nonzero;stroke:none"
         id="text31"><tspan
           x="0 14.4 28.525 43.525002 59.525002 74.525002 87.775002 93.275002 109.275 124.275 137.52499 153.52499 159.52499 165.02499 178.02499 191.27499 206.27499 222.27499 238.27499 244.27499 259.27499 274.27499 287.52499 293.02499 307.42499 312.92499 327.92499 342.67499 358.67499"
           y="0"
           sodipodi:role="line"
           id="tspan29">VYSOKÉ UČENÍ TECHNICKÉ V BRNĚ</tspan></text>
      <text
         transform="matrix(1,0,0,-1,82.5,570.489)"
         style="font-variant:normal;font-weight:normal;font-size:11px;font-family:VafleVUT;-inkscape-font-specification:VafleVUT-Regular;writing-mode:lr-tb;fill:#8a8c90;fill-opacity:1;fill-rule:nonzero;stroke:none"
         id="text35"><tspan
           x="0 6.5999999 13.09 20.129999 27.17 29.59 36.630001 43.669998 46.310001 52.646 58.476002 64.966003 71.566002 74.206001 79.926003 86.140999 88.560997 95.600998 100.936 103.356 109.076 114.906 121.506 128.54601 135.586 142.62601 147.961 155.00101 161.821"
           y="0"
           sodipodi:role="line"
           id="tspan33">BRNO UNIVERSITY OF TECHNOLOGY</tspan></text>
      <text
         transform="matrix(1,0,0,-1,82.5,529.701)"
         style="font-variant:normal;font-weight:normal;font-size:18px;font-family:VafleVUT;-inkscape-font-specification:VafleVUT-Regular;writing-mode:lr-tb;fill:#000000;fill-opacity:1;fill-rule:nonzero;stroke:none"
         id="text39"><tspan
           x="0 8.7299995 19.638 30.438 41.958 50.688 60.048 70.956001 74.916 84.456001 93.185997 102.726 113.526 122.886 133.506 145.026 154.386 163.92599 174.726 186.246 197.76601 202.086 212.886"
           y="0"
           sodipodi:role="line"
           id="tspan37">FAKULTA ELEKTROTECHNIKY</tspan></text>
      <text
         transform="matrix(1,0,0,-1,82.5,504.99)"
         style="font-variant:normal;font-weight:normal;font-size:18px;font-family:VafleVUT;-inkscape-font-specification:VafleVUT-Regular;writing-mode:lr-tb;fill:#000000;fill-opacity:1;fill-rule:nonzero;stroke:none"
         id="text43"><tspan
           x="0 10.908 14.868 25.667999 37.188 50.723999 62.243999 73.764 78.084 88.884003 99.792 110.592 122.112 126.432 137.23199 148.752 152.71201 162.07201 171.612 182.412 193.93201 205.452 216.972 225.702 237.222 248.382 252.702"
           y="0"
           sodipodi:role="line"
           id="tspan41">A KOMUNIKAČNÍCH TECHNOLOGIÍ</tspan></text>
      <text
         transform="matrix(1,0,0,-1,82.5,487.968)"
         style="font-variant:normal;font-weight:normal;font-size:11px;font-family:VafleVUT;-inkscape-font-specification:VafleVUT-Regular;writing-mode:lr-tb;fill:#8a8c90;fill-opacity:1;fill-rule:nonzero;stroke:none"
         id="text47"><tspan
           x="0 5.335 12.001 18.601 25.641001 30.976 36.695999 42.910999 45.331001 52.370998 57.706001 60.125999 65.956001 71.291 77.121002 83.721001 89.441002 95.931 98.570999 105.171 111.837 117.172 119.592 125.422 132.46201 139.282 141.922 148.96201 154.79201 160.62199 167.112 169.752 176.79201 183.612 186.032 192.698 199.73801 206.778 209.198 215.798 222.838 231.11 239.382 246.422 253.46201 256.10199 262.702 269.36801 275.08801 277.728 284.76801"
           y="0"
           sodipodi:role="line"
           id="tspan45">FACULTY OF ELECTRICAL ENGINEERING AND COMMUNICATION</tspan></text>
      <text
         transform="matrix(1,0,0,-1,82.5,447.179)"
         style="font-variant:normal;font-weight:normal;font-size:18px;font-family:VafleVUT;-inkscape-font-specification:VafleVUT-Regular;writing-mode:lr-tb;fill:#000000;fill-opacity:1;fill-rule:nonzero;stroke:none"
         id="text51"><tspan
           x="0 11.52 22.32 31.68 42.588001 52.956001 56.916 67.536003 78.444 89.963997 94.283997 105.804 115.344 124.074 133.614 144.414 153.774 164.394 175.914 187.43401 191.754 202.554"
           y="0"
           sodipodi:role="line"
           id="tspan49">ÚSTAV RADIOELEKTRONIKY</tspan></text>
      <text
         transform="matrix(1,0,0,-1,82.5,430.157)"
         style="font-variant:normal;font-weight:normal;font-size:11px;font-family:VafleVUT;-inkscape-font-specification:VafleVUT-Regular;writing-mode:lr-tb;fill:#8a8c90;fill-opacity:1;fill-rule:nonzero;stroke:none"
         id="text55"><tspan
           x="0 7.04 12.87 19.030001 25.695999 32.186001 37.905998 46.178001 52.007999 59.048 64.767998 67.188004 74.227997 79.563004 81.983002 88.473 95.139 102.179 104.819 111.859 114.279 120.109 125.444 131.274 137.87399 143.59399 150.084 157.12399 164.164 166.804 173.40401"
           y="0"
           sodipodi:role="line"
           id="tspan53">DEPARTMENT OF RADIO ELECTRONICS</tspan></text>
      <text
         transform="matrix(1,0,0,-1,82.5,345.172)"
         style="font-variant:normal;font-weight:normal;font-size:20px;font-family:VafleVUT;-inkscape-font-specification:VafleVUT-Regular;writing-mode:lr-tb;fill:#000000;fill-opacity:1;fill-rule:nonzero;stroke:none"
         id="text59"><tspan
           sodipodi:role="line"
           id="tspan57"
           x="0"
           y="0">Univerzální programovací pracoviště</tspan></text>
      <text
         transform="matrix(1,0,0,-1,82.5,327.6)"
         style="font-variant:normal;font-weight:normal;font-size:11px;font-family:VafleVUT;-inkscape-font-specification:VafleVUT-Regular;writing-mode:lr-tb;fill:#8a8c90;fill-opacity:1;fill-rule:nonzero;stroke:none"
         id="text63"><tspan
           sodipodi:role="line"
           id="tspan61"
           x="0"
           y="0">Universal Programming Station</tspan></text>
      <text
         transform="matrix(1,0,0,-1,84,244.054)"
         style="font-variant:normal;font-weight:normal;font-size:14px;font-family:VafleVUT;-inkscape-font-specification:VafleVUT-Regular;writing-mode:lr-tb;fill:#000000;fill-opacity:1;fill-rule:nonzero;stroke:none"
         id="text67"><tspan
           sodipodi:role="line"
           id="tspan65"
           x="0"
           y="0">MPC-OPE: Odborná praxe</tspan></text>
      <text
         transform="matrix(1,0,0,-1,84,228.129)"
         style="font-variant:normal;font-weight:normal;font-size:11px;font-family:VafleVUT;-inkscape-font-specification:VafleVUT-Regular;writing-mode:lr-tb;fill:#8a8c90;fill-opacity:1;fill-rule:nonzero;stroke:none"
         id="text71"><tspan
           sodipodi:role="line"
           id="tspan69"
           x="0"
           y="0" /></text>
      <text
         transform="matrix(1,0,0,-1,84,193.234)"
         style="font-variant:normal;font-weight:normal;font-size:14px;font-family:VafleVUT;-inkscape-font-specification:VafleVUT-Regular;writing-mode:lr-tb;fill:#000000;fill-opacity:1;fill-rule:nonzero;stroke:none"
         id="text75"><tspan
           x="0 8.4840002 17.444 24.724001 33.683998 41.944 45.023998 52.863998 61.124001 69.608002 78.008003"
           y="0"
           sodipodi:role="line"
           id="tspan73">AUTOR PRÁCE</tspan></text>
      <text
         transform="matrix(1,0,0,-1,84,177.309)"
         style="font-variant:normal;font-weight:normal;font-size:11px;font-family:VafleVUT;-inkscape-font-specification:VafleVUT-Regular;writing-mode:lr-tb;fill:#8a8c90;fill-opacity:1;fill-rule:nonzero;stroke:none"
         id="text79"><tspan
           x="0 6.6659999 13.706 19.426001 26.466 33.506001"
           y="0"
           sodipodi:role="line"
           id="tspan77">AUTHOR</tspan></text>
      <text
         transform="matrix(1,0,0,-1,284.286,193.234)"
         style="font-variant:normal;font-weight:normal;font-size:14px;font-family:VafleVUT;-inkscape-font-specification:VafleVUT-Regular;writing-mode:lr-tb;fill:#000000;fill-opacity:1;fill-rule:nonzero;stroke:none"
         id="text83"><tspan
           x="0 8.3999996 15.47 18.27 21.35 28.139999 31.43 34.720001 38.009998 45.5 48.580002 56.419998 63.728001 71.288002"
           y="0"
           sodipodi:role="line"
           id="tspan81">Bc. Filip Paul</tspan></text>
      <text
         transform="matrix(1,0,0,-1,84,142.414)"
         style="font-variant:normal;font-weight:normal;font-size:14px;font-family:VafleVUT;-inkscape-font-specification:VafleVUT-Regular;writing-mode:lr-tb;fill:#000000;fill-opacity:1;fill-rule:nonzero;stroke:none"
         id="text87"><tspan
           x="0 8.0640001 15.484 24.444 33.403999 42.363998 50.764 54.124001 57.203999 65.043999 73.304001 81.788002 90.188004"
           y="0"
           sodipodi:role="line"
           id="tspan85">VEDOUCÍ PRÁCE</tspan></text>
      <text
         transform="matrix(1,0,0,-1,84,126.489)"
         style="font-variant:normal;font-weight:normal;font-size:11px;font-family:VafleVUT;-inkscape-font-specification:VafleVUT-Regular;writing-mode:lr-tb;fill:#8a8c90;fill-opacity:1;fill-rule:nonzero;stroke:none"
         id="text91"><tspan
           x="0 6.5999999 13.64 19.799999 25.629999 32.119999 38.456001 41.096001 47.695999 54.736"
           y="0"
           sodipodi:role="line"
           id="tspan89">SUPERVISOR</tspan></text>
      <text
         transform="matrix(1,0,0,-1,284.286,142.414)"
         style="font-variant:normal;font-weight:normal;font-size:14px;font-family:VafleVUT;-inkscape-font-specification:VafleVUT-Regular;writing-mode:lr-tb;fill:#000000;fill-opacity:1;fill-rule:nonzero;stroke:none"
         id="text95"><tspan
           x="0"
           y="0"
           sodipodi:role="line"
           id="tspan93">Ing. Radomil Havlín</tspan></text>
      <text
         transform="matrix(1,0,0,-1,84,61.594)"
         style="font-variant:normal;font-weight:normal;font-size:14px;font-family:VafleVUT;-inkscape-font-specification:VafleVUT-Regular;writing-mode:lr-tb;fill:#000000;fill-opacity:1;fill-rule:nonzero;stroke:none"
         id="text99"><tspan
           x="0 8.3999996 16.66 25.620001 34.580002 37.66 45.220001 53.619999 61.18"
           y="0"
           sodipodi:role="line"
           id="tspan97">BRNO 2022</tspan></text>
    </g>
  </g>
</svg>
